<svg xmlns="http://www.w3.org/2000/svg" width="60" height="60" viewBox="0 0 60 60"><title>gandi</title><desc>Created with Sketch.</desc><g fill="#1A1918"><path d="M29.834 19.81c1.859 0 3.609-.718 4.925-2.023 1.315-1.304 2.039-3.038 2.039-4.883 0-1.844-.725-3.578-2.04-4.883-1.314-1.304-3.064-2.023-4.924-2.023-1.86 0-3.609.718-4.924 2.023-1.316 1.304-2.04 3.038-2.04 4.883 0 1.844.724 3.579 2.04 4.883 1.315 1.304 3.064 2.023 4.924 2.023zm-1.447-8.34c.386-.383.9-.595 1.447-.595s1.061.211 1.447.594c.387.384.6.893.6 1.435s-.213 1.052-.599 1.434c-.386.384-.9.595-1.447.595s-1.06-.211-1.447-.594-.6-.893-.6-1.435.213-1.051.599-1.434zM29.61 31.802c1.34-.827 2.777-1.598 4.166-2.343 1.603-.86 3.121-1.675 4.455-2.548 2.373-1.287 4.459-3.181 6.215-5.64.964-1.349.642-3.216-.719-4.17v.002c-1.36-.955-3.244-.635-4.207.713-1.182 1.657-2.49 2.885-3.979 3.733l-.418.225-.393.191c-1.391.639-2.939.974-4.729 1.027-1.79-.053-3.339-.389-4.73-1.028-1.831-.841-3.398-2.198-4.791-4.149-.963-1.348-2.846-1.668-4.206-.713-1.36.954-1.683 2.822-.72 4.17 1.989 2.787 4.405 4.847 7.18 6.122.545.25 1.101.471 1.671.661-2.357 1.687-4.905 4.052-6.126 7.294-1.267 3.366-1.251 7.01.044 10.26 1.243 3.119 3.544 5.656 6.479 7.144 3.27 1.658 7.431 1.661 11.134.008 3.883-1.733 6.418-4.907 6.777-8.493.378-3.772-1.445-7.133-4.648-8.559-3.317-1.477-7.06-.423-9.532 2.686-1.033 1.297-.809 3.179.499 4.201 1.308 1.024 3.205.803 4.238-.494.734-.924 1.582-1.265 2.324-.935.631.282 1.256 1.089 1.114 2.509-.142 1.406-1.386 2.797-3.25 3.629-2.017.898-4.281.944-5.91.118-1.626-.825-2.909-2.25-3.612-4.014-.528-1.324-.957-3.435-.003-5.968.717-1.9 2.521-3.692 5.677-5.639z"/></g></svg>